<svg xmlns="http://www.w3.org/2000/svg" xmlns:xlink="http://www.w3.org/1999/xlink" version="1.1" x="0px" y="0px" viewBox="0 0 100 125" enable-background="new 0 0 100 100" xml:space="preserve"><g><g><path fill="#000000" d="M49.28,82.695c-2.873,0-5.211-2.337-5.211-5.211s2.338-5.211,5.211-5.211s5.211,2.337,5.211,5.211    S52.153,82.695,49.28,82.695z M49.28,75.273c-1.219,0-2.211,0.992-2.211,2.211s0.992,2.211,2.211,2.211s2.211-0.992,2.211-2.211    S50.499,75.273,49.28,75.273z"/></g><g><g><path fill="#000000" d="M51.16,21.801h-8.744c-0.828,0-1.5-0.671-1.5-1.5s0.672-1.5,1.5-1.5h8.744c0.828,0,1.5,0.671,1.5,1.5     S51.988,21.801,51.16,21.801z"/></g><g><path fill="#000000" d="M56.145,21.801h-0.525c-0.828,0-1.5-0.671-1.5-1.5s0.672-1.5,1.5-1.5h0.525c0.828,0,1.5,0.671,1.5,1.5     S56.973,21.801,56.145,21.801z"/></g></g><g><path fill="#000000" d="M59.155,59.688h-1.542c-0.691,0-1.293-0.473-1.457-1.144l-1.927-7.888L52.413,48.1l-0.716,2.076    c-0.228,0.66-0.881,1.069-1.576,1.002l-4.711-0.5c-0.53-0.056-0.99-0.389-1.209-0.875l-1.218-2.699l-7.522,5.154    c-0.485,0.334-1.123,0.352-1.628,0.044l-4.89-2.977c-0.447-0.272-0.72-0.758-0.72-1.281V18.882c0-3.871,3.149-7.02,7.021-7.02    h28.073c3.87,0,7.02,3.149,7.02,7.02v25.144c0,0.546-0.296,1.048-0.773,1.312c-0.479,0.264-1.061,0.249-1.523-0.042l-4.512-2.829    l-2.897,15.986C60.502,59.168,59.881,59.688,59.155,59.688z M51.946,43.354c0.481,0,0.938,0.232,1.223,0.631l3.672,5.167    c0.11,0.154,0.189,0.329,0.234,0.513l1.206,4.935l2.69-14.847c0.088-0.49,0.414-0.904,0.87-1.104    c0.453-0.2,0.979-0.164,1.402,0.101l4.093,2.566V18.882c0-2.217-1.803-4.02-4.02-4.02H35.244c-2.217,0-4.021,1.803-4.021,4.02    v28.318l3.342,2.034l8.2-5.619c0.366-0.25,0.826-0.327,1.252-0.207c0.428,0.12,0.78,0.423,0.963,0.828l1.602,3.549l2.669,0.283    l1.277-3.705c0.184-0.531,0.648-0.916,1.204-0.996C51.804,43.358,51.876,43.354,51.946,43.354z"/></g><g><path fill="#000000" d="M63.317,88.138H35.244c-3.871,0-7.021-3.149-7.021-7.02V56.807c0-0.55,0.301-1.056,0.784-1.318    s1.07-0.239,1.532,0.06l4.026,2.612l6.968-5.061c0.355-0.258,0.805-0.347,1.232-0.245c0.427,0.103,0.787,0.387,0.986,0.778    l1.296,2.546l3.048,0.109l1.908-2.306c0.347-0.42,0.898-0.62,1.433-0.518c0.537,0.101,0.976,0.485,1.147,1.004l3.052,9.245    l6.305,0.396l2.847-14.205c0.094-0.47,0.407-0.867,0.844-1.067c0.434-0.202,0.939-0.181,1.359,0.053l2.578,1.442    c0.474,0.265,0.768,0.766,0.768,1.309v29.477C70.337,84.989,67.188,88.138,63.317,88.138z M31.224,59.568v21.55    c0,2.217,1.804,4.02,4.021,4.02h28.073c2.217,0,4.02-1.803,4.02-4.02l-0.012-28.604l-2.699,13.469    c-0.146,0.735-0.821,1.245-1.564,1.202l-8.625-0.542c-0.612-0.039-1.139-0.445-1.331-1.027l-2.52-7.632l-0.649,0.785    c-0.297,0.359-0.749,0.561-1.209,0.543l-4.668-0.167c-0.545-0.02-1.036-0.333-1.283-0.818l-0.9-1.768l-6.38,4.634    c-0.502,0.366-1.177,0.384-1.698,0.045L31.224,59.568z"/></g><g><path fill="#000000" d="M24.779,49.646c-0.232,0-0.468-0.054-0.688-0.168l-4.833-2.5c-0.735-0.381-1.023-1.286-0.643-2.021    s1.286-1.022,2.021-0.644l4.833,2.5c0.735,0.381,1.023,1.286,0.643,2.021C25.846,49.35,25.322,49.646,24.779,49.646z"/></g><g><path fill="#000000" d="M19.947,57.146c-0.605,0-1.175-0.369-1.402-0.969c-0.294-0.774,0.096-1.641,0.87-1.934l4.833-1.833    c0.778-0.294,1.641,0.096,1.935,0.871c0.294,0.774-0.096,1.641-0.87,1.934l-4.833,1.833    C20.304,57.114,20.124,57.146,19.947,57.146z"/></g><g><path fill="#000000" d="M73.281,47.146c-0.55,0-1.08-0.304-1.343-0.83c-0.37-0.741-0.07-1.642,0.671-2.013l6.333-3.166    c0.742-0.368,1.643-0.07,2.013,0.671c0.37,0.741,0.07,1.642-0.671,2.013l-6.333,3.166C73.735,47.095,73.507,47.146,73.281,47.146z    "/></g><g><path fill="#000000" d="M79.612,55.313c-0.253,0-0.509-0.064-0.743-0.198l-4.666-2.667c-0.72-0.411-0.969-1.327-0.559-2.046    c0.413-0.72,1.331-0.967,2.047-0.558l4.666,2.667c0.72,0.411,0.969,1.327,0.559,2.046C80.639,55.042,80.133,55.313,79.612,55.313z    "/></g><g><path fill="#000000" d="M43.949,45.562c-0.041,0-0.082-0.001-0.124-0.005c-0.825-0.067-1.44-0.792-1.373-1.617l0.333-4.083    c0.068-0.826,0.791-1.438,1.617-1.373c0.825,0.067,1.44,0.792,1.373,1.617l-0.333,4.083    C45.378,44.969,44.722,45.562,43.949,45.562z"/></g><g><path fill="#000000" d="M44.281,41.479c-0.501,0-0.991-0.251-1.275-0.708l-1.864-3c-0.437-0.704-0.221-1.628,0.482-2.065    c0.704-0.437,1.629-0.222,2.066,0.482l1.864,3c0.437,0.704,0.221,1.628-0.482,2.065C44.825,41.407,44.552,41.479,44.281,41.479z"/></g><g><path fill="#000000" d="M51.947,46.355c-0.173,0-0.348-0.03-0.519-0.093c-0.777-0.287-1.176-1.149-0.889-1.926l1.045-2.834    c0.287-0.777,1.151-1.175,1.926-0.888c0.777,0.287,1.176,1.149,0.889,1.926l-1.045,2.834    C53.131,45.979,52.558,46.355,51.947,46.355z"/></g><g><path fill="#000000" d="M43.948,64.146c-0.017,0-0.034,0-0.051-0.001c-0.828-0.027-1.477-0.721-1.449-1.549l0.166-5    c0.027-0.827,0.718-1.46,1.549-1.449c0.828,0.027,1.477,0.721,1.449,1.549l-0.166,5C45.42,63.506,44.754,64.146,43.948,64.146z"/></g></g><text x="0" y="115" fill="#000000" font-size="5px" font-weight="bold" font-family="'Helvetica Neue', Helvetica, Arial-Unicode, Arial, Sans-serif">Created by Jetro Cabau Quirós</text><text x="0" y="120" fill="#000000" font-size="5px" font-weight="bold" font-family="'Helvetica Neue', Helvetica, Arial-Unicode, Arial, Sans-serif">from the Noun Project</text></svg>